<svg width="88.402710" height="94.000000" viewBox="0 0 88.4027 94" fill="none" xmlns="http://www.w3.org/2000/svg" xmlns:xlink="http://www.w3.org/1999/xlink">
	<desc>
			Created with Pixso.
	</desc>
	<defs/>
	<path id="Vector 13" d="M20.2 40L20.2 44C20.2 46.76 22.43 49 25.2 49L37.2 49" stroke="#FFFFFF" stroke-opacity="1.000000" stroke-width="4.000000"/>
	<path id="Union" d="M55.2672 52.5909L60.9396 62.5576L57.4632 64.5362L54.5452 59.4091L46.9205 67.9563L46.9444 67.9814L46.8872 68.0431L53.5242 75.689L50.5035 78.3111L44.1534 70.9957L37.3356 78.3589L34.4005 75.6412L41.4584 68.0187L33.136 59.2724L29.911 64.5848L26.4918 62.509L32.4299 52.7276L44.1539 65.0488L55.2672 52.5909Z" clip-rule="evenodd" fill="#FFFFFF" fill-opacity="0.500000" fill-rule="evenodd"/>
	<path id="Vector 9" d="M10.85 72.79C16.5 67.58 25.07 64.54 28.81 64L44.2 92L2.2 92C2.62 87.55 5.21 78 10.85 72.79Z" stroke="#FFFFFF" stroke-opacity="1.000000" stroke-width="4.000000"/>
	<path id="Vector 10" d="M77.54 72.79C71.9 67.58 63.33 64.54 59.59 64L44.2 92L86.2 92C85.77 87.55 83.18 78 77.54 72.79Z" stroke="#FFFFFF" stroke-opacity="1.000000" stroke-width="4.000000"/>
	<path id="Rectangle 19" d="M25.09 25.98C24.6 15.09 33.3 6 44.2 6C55.09 6 63.79 15.09 63.3 25.98L62.52 43.47C62.08 53.27 54.01 61 44.2 61C34.39 61 26.31 53.27 25.87 43.47L25.09 25.98ZM59.31 25.8L58.52 43.3Q58.39 46.17 57.29 48.6Q56.19 51.03 54.11 53.02Q52.03 55.01 49.55 56Q47.07 57 44.2 57Q41.32 57 38.84 56Q36.36 55.01 34.29 53.02Q32.21 51.03 31.1 48.6Q30 46.17 29.87 43.3L29.09 25.8Q28.94 22.57 29.99 19.79Q31.03 17 33.27 14.67Q35.5 12.33 38.23 11.16Q40.96 10 44.2 10Q47.43 10 50.16 11.16Q52.89 12.33 55.13 14.67Q57.36 17 58.41 19.79Q59.45 22.57 59.31 25.8Z" fill="#FFFFFF" fill-opacity="1.000000" fill-rule="evenodd"/>
	<path id="Vector 14" d="M26.7 25C26.7 25 30.98 19.51 36.04 18.32C43.67 16.52 43.38 22.66 54.54 26.33C57.27 27.23 61.2 27 61.2 27" stroke="#FFFFFF" stroke-opacity="0.500000" stroke-width="4.000000"/>
	<path id="Union" d="M22.5096 23.7896Q22.9532 23.6287 23.4077 23.5091Q24.5099 23.219 25.6761 23.1719L25.8374 27.1687Q25.0763 27.1994 24.3605 27.3957Q23.8206 27.5438 23.3065 27.7861Q22.7748 28.0367 22.3033 28.3719Q21.7493 28.7657 21.2783 29.2763Q20.8073 29.7869 20.4594 30.3708Q20.1633 30.8678 19.9564 31.4179Q19.7563 31.9498 19.6522 32.4999Q19.5142 33.2292 19.5449 33.9903L19.5665 34.5268Q19.5972 35.2879 19.7935 36.0036Q19.9416 36.5436 20.1839 37.0577Q20.4345 37.5893 20.7697 38.0608Q21.1635 38.6148 21.6741 39.0858Q22.1847 39.5568 22.7686 39.9047Q23.2656 40.2008 23.8157 40.4078Q24.3477 40.6079 24.8978 40.712Q25.627 40.85 26.3882 40.8193L26.5494 44.816Q25.3832 44.8631 24.2611 44.6628Q23.3186 44.4944 22.4073 44.1516Q21.4921 43.8073 20.6689 43.3105Q19.7592 42.7614 18.962 42.026Q18.1647 41.2906 17.5441 40.428Q16.9826 39.6476 16.5657 38.7632Q16.1506 37.8824 15.9069 36.9565Q15.6168 35.8542 15.5698 34.688L15.5481 34.1516Q15.5011 32.9854 15.7014 31.8633Q15.8697 30.9208 16.2126 30.0094Q16.5568 29.0943 17.0536 28.2712Q17.5605 27.4314 18.2262 26.6875Q18.447 20.8943 20.6343 15.9756L20.6344 15.9754Q22.4901 11.8023 25.7612 8.25867Q30.0259 3.63857 35.29 1.60306L35.29 1.60304Q39.4358 0 44.2014 0Q48.9669 0 53.1126 1.60304Q58.3768 3.63855 62.6415 8.25867Q65.9127 11.8024 67.7684 15.9755Q70.1333 21.2938 70.1994 27.6342Q70.4199 27.9455 70.6165 28.2712Q71.1133 29.0943 71.4576 30.0094Q71.8004 30.9208 71.9687 31.8633L71.9687 31.8634Q72.169 32.9854 72.122 34.1516L72.1003 34.688Q72.0533 35.8542 71.7632 36.9565Q71.5195 37.8824 71.1044 38.7632Q70.6875 39.6476 70.126 40.428L70.1259 40.4281Q69.5053 41.2906 68.7081 42.026Q67.911 42.7613 67.0014 43.3103L67.0012 43.3105Q66.1781 43.8073 65.2628 44.1516Q64.3515 44.4944 63.4091 44.6627Q62.287 44.8631 61.1207 44.816L61.282 40.8193Q62.043 40.85 62.7722 40.712L62.7723 40.712Q63.3224 40.6079 63.8544 40.4078Q64.4045 40.2008 64.9015 39.9047L64.9016 39.9047Q65.4854 39.5568 65.996 39.0858Q66.5066 38.6148 66.9004 38.0608Q67.2356 37.5893 67.4862 37.0577Q67.7285 36.5436 67.8766 36.0036Q68.0729 35.2879 68.1036 34.5268L68.1252 33.9903Q68.1559 33.2292 68.018 32.5001L68.0179 32.4999Q67.9138 31.9498 67.7137 31.4179Q67.5068 30.8678 67.2107 30.3708Q66.8628 29.7869 66.3918 29.2763Q65.9208 28.7657 65.3668 28.3719L65.3667 28.3718Q64.8952 28.0367 64.3636 27.7861Q63.8496 27.5438 63.3097 27.3957L63.3096 27.3957Q62.5938 27.1994 61.8327 27.1687L61.994 23.1719Q63.1602 23.219 64.2625 23.5091Q65.1202 23.7348 65.9393 24.1078Q65.4471 20.5641 64.0304 17.4395L64.0301 17.4389Q62.4449 13.9429 59.7023 10.9718Q56.0304 6.99387 51.5022 5.28563L51.502 5.28555Q48.0941 4 44.2014 4Q40.3086 4 36.9007 5.28554Q32.3724 6.99374 28.7004 10.9718Q25.9578 13.9429 24.3726 17.4389Q23.0194 20.4231 22.5096 23.7896Z" clip-rule="evenodd" fill="#FFFFFF" fill-opacity="1.000000" fill-rule="evenodd"/>
	<rect id="Rectangle 24" x="37.203918" y="45.891663" rx="3.122021" width="10.677387" height="6.244041" transform="rotate(0.400125 37.203918 45.891663)" stroke="#FFFFFF" stroke-opacity="1.000000" stroke-width="4.000000"/>
	<path id="Vector 15" d="M66.2 75C68.25 75.68 73.12 78.85 76.2 86" stroke="#FFFFFF" stroke-opacity="0.500000" stroke-width="4.000000"/>
</svg>
