<svg width="78.583557" height="95.664551" viewBox="0 0 78.5836 95.6646" fill="none" xmlns="http://www.w3.org/2000/svg" xmlns:xlink="http://www.w3.org/1999/xlink">
	<desc>
			Created with Pixso.
	</desc>
	<defs/>
	<circle id="Ellipse 10" cx="38.676086" cy="37.500000" r="16.500000" stroke="#FFFFFF" stroke-opacity="0.500000" stroke-width="4.000000"/>
	<path id="Star 2" d="M31.11 7.9L20.17 5.09L17.14 15.96L6.26 19L9.07 29.93L1.17 38L9.07 46.06L6.26 57L17.14 60.03L20.17 70.9L31.11 68.09L39.17 76L47.24 68.09L58.17 70.9L61.2 60.03L72.08 57L69.27 46.06L77.17 38L69.27 29.93L72.08 19L61.2 15.96L58.17 5.09L47.24 7.9L39.17 0L31.11 7.9ZM39.17 5.59L32.29 12.33L22.97 9.94L20.38 19.21L11.11 21.8L13.51 31.12L6.77 38L13.51 44.87L11.11 54.2L20.38 56.78L22.97 66.05L32.29 63.66L39.17 70.4L46.05 63.66L55.37 66.05L57.96 56.78L67.23 54.2L64.83 44.87L71.57 38L64.83 31.12L67.23 21.8L57.96 19.21L55.37 9.94L46.05 12.33L39.17 5.59Z" fill="#FFFFFF" fill-opacity="1.000000" fill-rule="evenodd"/>
	<path id="Rectangle 15" d="M29.62 80.33L24.4 91.83L16.29 81.5L3.18 82.17L14.18 58" stroke="#FFFFFF" stroke-opacity="1.000000" stroke-width="4.000000"/>
	<path id="Rectangle 17" d="M43.73 68.82L54.18 91.83L62.28 81.5L75.4 82.17L69.9 70.08" stroke="#FFFFFF" stroke-opacity="1.000000" stroke-width="4.000000"/>
</svg>
