<svg width="132.000031" height="81.000031" viewBox="0 0 132 81" fill="none" xmlns="http://www.w3.org/2000/svg" xmlns:xlink="http://www.w3.org/1999/xlink">
	<desc>
			Created with Pixso.
	</desc>
	<defs/>
	<rect id="Rectangle 7" x="2.000000" y="32.727295" width="85.655174" height="46.272728" stroke="#FFFFFF" stroke-opacity="1.000000" stroke-width="4.000000"/>
	<path id="Rectangle 12" d="M38.34 27.13L38.34 12Q38.34 7.02 41.85 3.51Q45.37 0 50.34 0L120 0Q124.97 0 128.48 3.51Q132 7.02 132 12L132 49.45Q132 54.42 128.48 57.93Q124.97 61.45 120 61.45L93.24 61.45L93.24 57.45L120 57.45Q123.31 57.45 125.65 55.11Q128 52.76 128 49.45L128 12Q128 8.68 125.65 6.34Q123.31 4 120 4L50.34 4Q47.03 4 44.68 6.34Q42.34 8.68 42.34 12L42.34 27.13L38.34 27.13Z" fill="#FFFFFF" fill-opacity="1.000000" fill-rule="evenodd"/>
	<ellipse id="Ellipse 5" cx="44.827606" cy="55.863647" rx="15.034483" ry="15.056818" stroke="#FFFFFF" stroke-opacity="0.500000" stroke-width="4.000000"/>
	<path id="Rectangle 8" d="M46.61 46.88C49.58 46.88 52 49.29 52 52.27C52 55.24 49.58 57.65 46.61 57.65L40.34 57.65L40.34 46.88L46.61 46.88ZM46.61 50.88C47.37 50.88 48 51.5 48 52.27C48 53.03 47.37 53.65 46.61 53.65L44.34 53.65L44.34 50.88L46.61 50.88Z" fill="#FFFFFF" fill-opacity="1.000000" fill-rule="evenodd"/>
	<rect id="Rectangle 9" x="36.758606" y="54.068176" width="7.172413" height="3.590909" fill="#FFFFFF" fill-opacity="1.000000"/>
	<rect id="Rectangle 11" x="36.758606" y="59.454529" width="15.241380" height="3.590909" fill="#FFFFFF" fill-opacity="1.000000"/>
	<rect id="Rectangle 10" x="40.344849" y="46.886353" width="3.586207" height="18.852272" fill="#FFFFFF" fill-opacity="1.000000"/>
	<path id="Vector 4" d="M69.03 39.7L80.68 39.7L80.68 54.06" stroke="#FFFFFF" stroke-opacity="0.500000" stroke-width="4.000000"/>
	<path id="Vector 5" d="M20.62 72.02L8.96 72.02L8.96 57.65" stroke="#FFFFFF" stroke-opacity="0.500000" stroke-width="4.000000"/>
	<path id="Vector 6" d="M8.96 54.06L8.96 46.88" stroke="#FFFFFF" stroke-opacity="0.500000" stroke-width="4.000000"/>
	<path id="Union" d="M105.331 37.0114C101.13 37.0114 97.7241 40.4277 97.7241 44.642C97.7241 48.8564 101.13 52.2727 105.331 52.2727C107.219 52.2727 108.946 51.583 110.276 50.441C111.606 51.583 113.333 52.2727 115.22 52.2727C119.422 52.2727 122.828 48.8564 122.828 44.642C122.828 40.4277 119.422 37.0114 115.22 37.0114C113.333 37.0114 111.606 37.7011 110.276 38.843C108.946 37.7011 107.219 37.0114 105.331 37.0114Z" clip-rule="evenodd" fill="#FFFFFF" fill-opacity="1.000000" fill-rule="evenodd"/>
	<rect id="Rectangle 13" x="42.137939" y="11.875000" width="86.068962" height="4.488636" fill="#FFFFFF" fill-opacity="0.500000"/>
	<rect id="Rectangle 14" x="42.137939" y="19.954590" width="86.068962" height="4.488636" fill="#FFFFFF" fill-opacity="0.500000"/>
</svg>
