<svg width="132.000000" height="58.000031" viewBox="0 0 132 58" fill="none" xmlns="http://www.w3.org/2000/svg" xmlns:xlink="http://www.w3.org/1999/xlink">
	<desc>
			Created with Pixso.
	</desc>
	<defs/>
	<path id="Vector" d="M54.59 0L60.2 0L72.07 0L75.35 0L75.35 5.68L71.39 13.8L65.34 13.8L60.2 13.8L60.2 21.01L54.59 21.01L54.59 13.8L54.59 8.12L54.59 5.68L54.59 0ZM69.3 5.68L60.2 5.68L60.2 8.12L68.11 8.12L69.3 5.68Z" fill="#FFFFFF" fill-opacity="1.000000" fill-rule="evenodd"/>
	<path id="Vector" d="M75.35 0L80.96 0L92.82 0L96.1 0L96.1 5.68L92.14 13.8L92.12 13.8L95.63 21.01L89.58 21.01L86.07 13.8L80.96 13.8L80.96 21.01L75.35 21.01L75.35 13.8L75.35 8.12L75.35 5.68L75.35 0ZM90.05 5.68L80.96 5.68L80.96 8.12L86.07 8.12L88.87 8.12L90.05 5.68Z" fill="#FFFFFF" fill-opacity="1.000000" fill-rule="evenodd"/>
	<path id="Vector" d="M101.24 5.68L101.24 15.32L110.77 15.32L110.77 5.68L101.24 5.68ZM110.77 0L116.38 0L116.38 5.68L116.38 15.32L110.77 21.01L101.24 21.01L95.63 21.01L95.63 15.32L95.63 5.68L101.24 0L110.77 0L110.77 0Z" fill="#FFFFFF" fill-opacity="1.000000" fill-rule="evenodd"/>
	<path id="Vector" d="M60.2 33.9L60.2 36.34L63.64 36.34L69.73 36.34L69.73 33.9L60.2 33.9ZM60.2 42.02L60.2 49.23L54.59 49.23L54.59 42.02L54.59 36.34L54.59 33.9L60.2 28.21L69.73 28.21L75.35 28.21L75.35 33.9L75.35 36.34L75.35 37.38L75.35 42.02L75.35 43.54L75.35 49.23L69.73 49.23L69.73 42.02L63.64 42.02L60.2 42.02Z" fill="#D42E12" fill-opacity="1.000000" fill-rule="evenodd"/>
	<path id="Vector" d="M84.87 28.21L90.49 28.21L90.49 43.54L84.87 49.23L75.35 49.23L69.73 49.23L69.73 43.54L69.73 37.38L69.73 28.21L75.35 28.21L75.35 37.38L75.35 43.54L84.87 43.54L84.87 28.21Z" fill="#D42E12" fill-opacity="1.000000" fill-rule="evenodd"/>
	<path id="Vector" d="M98.06 28.21L103.67 28.21L105.63 28.21L111.24 28.21L111.24 33.9L103.67 33.9L103.67 37.38L103.67 43.54L103.67 49.23L98.06 49.23L98.06 37.38L98.06 33.9L90.49 33.9L90.49 28.21L98.06 28.21Z" fill="#D42E12" fill-opacity="1.000000" fill-rule="evenodd"/>
	<path id="Vector" d="M116.85 33.9L116.85 43.54L126.38 43.54L126.38 33.9L116.85 33.9ZM126.38 28.21L132 28.21L132 33.9L132 43.54L126.38 49.23L116.85 49.23L111.24 49.23L111.24 43.54L111.24 33.9L116.85 28.21L126.38 28.21Z" fill="#D42E12" fill-opacity="1.000000" fill-rule="evenodd"/>
	<path id="Vector" d="M43.36 0L48.98 0L48.98 49.23L43.36 49.23L43.36 0Z" fill="#D42E12" fill-opacity="1.000000" fill-rule="evenodd"/>
	<path id="Vector" d="M43.36 9.15e-5L27.89 9.15e-5L13.48 12.12L9.63 8.85L0.92 8.85L4.9 12.88L8.88 12.88L31.09 19.54L25.23 15.34L43.36 15.34L43.36 9.15e-5Z" fill="#FFFFFF" fill-opacity="1.000000" fill-rule="evenodd"/>
	<path id="Vector" d="M9.06 17.31L21.17 25.81L11.62 24.74L7.38 17.25L9.06 17.31Z" fill="#FFFFFF" fill-opacity="1.000000" fill-rule="evenodd"/>
	<path id="Vector" d="M43.36 32.35L9.72 32.35L27.4 45.06L4.59 45.06L0 25.01L0 49.23L12.73 49.23L12.73 48.17L43.36 48.17L43.36 32.35Z" fill="#FFFFFF" fill-opacity="1.000000" fill-rule="evenodd"/>
	<path id="Vector" d="M43.36 26.12L22.09 25.9L35.64 27.44L43.36 27.44L43.36 26.12Z" fill="#FFFFFF" fill-opacity="1.000000" fill-rule="evenodd"/>
	<path id="Vector" d="M6.27 53.9L6.27 54.92L2.1 54.92C1.82 54.92 1.6 55.02 1.46 55.23C1.33 55.41 1.27 55.65 1.27 55.95C1.27 56.25 1.33 56.49 1.46 56.66C1.6 56.87 1.82 56.97 2.1 56.97L6.27 56.97L6.27 58L1.94 58C1.31 58 0.83 57.81 0.49 57.45C0.16 57.09 0 56.59 0 55.95C0 55.3 0.16 54.8 0.49 54.44C0.83 54.08 1.31 53.9 1.94 53.9L6.27 53.9ZM9.19 57.03L13.42 57.03L13.42 58L9.03 58C8.4 58 7.92 57.81 7.59 57.45C7.25 57.09 7.09 56.59 7.09 55.95C7.09 55.3 7.25 54.8 7.59 54.44C7.92 54.08 8.4 53.9 9.03 53.9L13.42 53.9L13.42 54.86L9.19 54.86C8.97 54.86 8.78 54.93 8.64 55.05C8.57 55.11 8.48 55.25 8.37 55.46L8.37 55.48L13.42 55.48L13.42 56.4L8.37 56.4L8.37 56.43C8.47 56.64 8.56 56.77 8.64 56.84C8.78 56.96 8.97 57.03 9.19 57.03ZM20.66 53.9L20.66 54.92L18.06 54.92L18.06 58L16.84 58L16.84 54.92L14.24 54.92L14.24 53.9L20.66 53.9ZM26.59 57.03C26.84 57.03 26.97 56.93 26.97 56.72C26.97 56.51 26.84 56.4 26.59 56.4L22.7 56.4L22.7 57.03L26.59 57.03ZM22.7 53.9L22.7 55.48L26.91 55.48C27.3 55.48 27.61 55.59 27.84 55.81C28.07 56.03 28.19 56.34 28.19 56.73C28.19 57.13 28.07 57.44 27.85 57.66C27.62 57.88 27.3 58 26.91 58L21.48 58L21.48 53.9L22.7 53.9ZM34.15 54.86L34.15 53.9L39.01 53.9C39.49 53.9 39.87 54.03 40.15 54.28C40.32 54.44 40.44 54.62 40.51 54.83C40.55 54.99 40.57 55.21 40.57 55.5L40.57 58L35.15 58C34.75 58 34.44 57.88 34.21 57.66C33.98 57.44 33.87 57.13 33.87 56.73C33.87 56.34 33.98 56.03 34.21 55.81C34.44 55.59 34.75 55.48 35.15 55.48L39.35 55.48L39.35 55.44C39.35 55.14 39.24 54.95 39.02 54.89C38.95 54.87 38.85 54.86 38.71 54.86L34.15 54.86ZM39.35 57.03L39.35 56.4L35.47 56.4C35.21 56.4 35.08 56.51 35.08 56.72C35.08 56.93 35.21 57.03 35.47 57.03L39.35 57.03ZM41.39 53.9L46.81 53.9C47.21 53.9 47.52 54.01 47.75 54.23C47.98 54.45 48.09 54.76 48.09 55.16C48.09 55.48 48.01 55.75 47.87 55.95C48.01 56.16 48.09 56.42 48.09 56.74C48.09 57.13 47.98 57.44 47.75 57.66C47.52 57.88 47.21 58 46.81 58L41.39 58L41.39 53.9ZM46.49 57.03C46.75 57.03 46.87 56.93 46.87 56.72C46.87 56.52 46.76 56.42 46.54 56.4L42.6 56.4L42.6 57.03L46.49 57.03ZM42.6 54.86L42.6 55.48L46.49 55.48C46.75 55.49 46.87 55.38 46.87 55.17C46.87 54.97 46.75 54.86 46.49 54.86L42.6 54.86ZM55.33 53.9L55.33 54.92L52.73 54.92L52.73 58L51.51 58L51.51 54.92L48.91 54.92L48.91 53.9L55.33 53.9ZM57.66 53.9L61.56 53.9C61.98 53.9 62.33 54.05 62.63 54.34C62.92 54.64 63.07 55 63.07 55.42L63.07 56.47C63.07 56.89 62.92 57.25 62.63 57.55C62.33 57.85 61.98 58 61.56 58L57.66 58C57.25 58 56.89 57.85 56.59 57.55C56.3 57.25 56.15 56.89 56.15 56.47L56.15 55.42C56.15 55 56.3 54.64 56.59 54.34C56.89 54.05 57.25 53.9 57.66 53.9ZM57.4 55.48L57.4 56.35C57.4 56.52 57.46 56.67 57.58 56.79C57.7 56.92 57.85 56.98 58.02 56.98L61.14 56.98C61.31 56.98 61.45 56.92 61.57 56.79C61.7 56.67 61.76 56.52 61.76 56.35L61.76 55.48C61.76 55.31 61.7 55.16 61.57 55.04C61.45 54.92 61.31 54.86 61.14 54.86L58.02 54.86C57.85 54.86 57.7 54.92 57.58 55.04C57.46 55.16 57.4 55.31 57.4 55.48ZM71.08 53.9L72.31 53.9L72.31 58L71.1 58L71.1 55.15C71.08 55.16 71.04 55.19 70.97 55.24C70.9 55.3 70.81 55.37 70.71 55.44C70.6 55.52 70.49 55.61 70.37 55.7C70.25 55.79 70.13 55.88 70.02 55.96C69.9 56.05 69.8 56.13 69.71 56.19C69.62 56.26 69.56 56.31 69.52 56.34C69.46 56.39 69.39 56.44 69.32 56.49C69.25 56.54 69.18 56.58 69.11 56.62C69.04 56.66 68.97 56.69 68.9 56.72C68.83 56.76 68.76 56.78 68.7 56.8C68.63 56.82 68.57 56.84 68.5 56.85C68.43 56.86 68.36 56.87 68.3 56.88C68.23 56.88 68.17 56.89 68.1 56.89C68.03 56.89 67.97 56.88 67.9 56.88C67.84 56.87 67.77 56.86 67.7 56.85C67.63 56.84 67.57 56.82 67.5 56.8C67.37 56.76 67.24 56.7 67.09 56.62C66.94 56.54 66.8 56.44 66.68 56.34C66.64 56.31 66.57 56.26 66.48 56.19C66.39 56.12 66.29 56.05 66.18 55.96C66.06 55.87 65.94 55.78 65.82 55.69C65.7 55.6 65.59 55.52 65.48 55.44C65.38 55.36 65.29 55.3 65.22 55.24C65.15 55.19 65.11 55.16 65.1 55.15L65.1 58L63.88 58L63.88 53.9L65.12 53.9L67.37 55.58C67.44 55.63 67.52 55.68 67.6 55.72C67.67 55.76 67.74 55.79 67.83 55.82C67.92 55.85 68.01 55.87 68.1 55.87C68.19 55.87 68.28 55.85 68.37 55.82C68.46 55.79 68.53 55.76 68.6 55.72C68.68 55.68 68.76 55.63 68.83 55.58L71.08 53.9ZM73.42 54.86L73.42 53.9L78.27 53.9C78.75 53.9 79.13 54.03 79.41 54.28C79.59 54.44 79.71 54.62 79.77 54.83C79.82 54.99 79.84 55.21 79.84 55.5L79.84 58L74.41 58C74.02 58 73.7 57.88 73.48 57.66C73.25 57.44 73.13 57.13 73.13 56.73C73.13 56.34 73.25 56.03 73.48 55.81C73.71 55.59 74.02 55.48 74.41 55.48L78.62 55.48L78.62 55.44C78.62 55.14 78.51 54.95 78.29 54.89C78.22 54.87 78.11 54.86 77.98 54.86L73.42 54.86ZM78.62 57.03L78.62 56.4L74.74 56.4C74.48 56.4 74.35 56.51 74.35 56.72C74.35 56.93 74.48 57.03 74.74 57.03L78.62 57.03ZM81.87 58L80.65 58L80.65 53.9L87.07 53.9L87.07 54.86L81.87 54.86L81.87 58ZM88.18 54.86L88.18 53.9L93.03 53.9C93.51 53.9 93.89 54.03 94.17 54.28C94.35 54.44 94.47 54.62 94.53 54.83C94.57 54.99 94.59 55.21 94.59 55.5L94.59 58L89.17 58C88.78 58 88.46 57.88 88.23 57.66C88 57.44 87.89 57.13 87.89 56.73C87.89 56.34 88.01 56.03 88.24 55.81C88.47 55.59 88.78 55.48 89.17 55.48L93.38 55.48L93.38 55.44C93.38 55.14 93.27 54.95 93.05 54.89C92.98 54.87 92.87 54.86 92.73 54.86L88.18 54.86ZM93.38 57.03L93.38 56.4L89.49 56.4C89.23 56.4 89.11 56.51 89.11 56.72C89.11 56.93 89.23 57.03 89.49 57.03L93.38 57.03ZM95.41 57.03L100.52 57.03C100.77 57.03 100.9 56.93 100.9 56.72C100.9 56.52 100.79 56.42 100.57 56.4L96.39 56.4L96.39 55.48L100.52 55.48C100.77 55.49 100.9 55.38 100.9 55.17C100.9 54.97 100.77 54.86 100.52 54.86L95.41 54.86L95.41 53.9L100.84 53.9C101.23 53.9 101.55 54.01 101.77 54.23C102 54.45 102.12 54.76 102.12 55.16C102.12 55.48 102.04 55.75 101.89 55.95C102.04 56.16 102.12 56.42 102.12 56.74C102.12 57.13 102 57.44 101.77 57.66C101.55 57.88 101.23 58 100.84 58L95.41 58L95.41 57.03ZM104.38 58C103.88 58 103.52 57.86 103.28 57.6C103.05 57.34 102.93 57.06 102.93 56.74L102.93 53.9L104.15 53.9L104.15 56.54C104.15 56.83 104.29 56.97 104.57 56.97L108.25 56.97L108.25 53.9L109.47 53.9L109.47 58L104.38 58ZM116.74 53.9L116.74 58L115.52 58L115.52 56.4L111.5 56.4L111.5 58L110.29 58L110.29 53.9L111.5 53.9L111.5 55.48L115.52 55.48L115.52 53.9L116.74 53.9ZM119.06 53.9L122.96 53.9C123.38 53.9 123.74 54.05 124.03 54.34C124.32 54.64 124.47 55 124.47 55.42L124.47 56.47C124.47 56.89 124.32 57.25 124.03 57.55C123.74 57.85 123.38 58 122.96 58L119.06 58C118.65 58 118.3 57.85 118 57.55C117.7 57.25 117.56 56.89 117.56 56.47L117.56 55.42C117.56 55 117.7 54.64 118 54.34C118.3 54.05 118.65 53.9 119.06 53.9ZM118.81 55.48L118.81 56.35C118.81 56.52 118.87 56.67 118.99 56.79C119.11 56.92 119.25 56.98 119.43 56.98L122.54 56.98C122.71 56.98 122.86 56.92 122.98 56.79C123.1 56.67 123.16 56.52 123.16 56.35L123.16 55.48C123.16 55.31 123.1 55.16 122.98 55.04C122.86 54.92 122.71 54.86 122.54 54.86L119.43 54.86C119.25 54.86 119.11 54.92 118.99 55.04C118.87 55.16 118.81 55.31 118.81 55.48ZM125.29 53.9L130.71 53.9C131.11 53.9 131.42 54.01 131.65 54.23C131.88 54.45 131.99 54.76 131.99 55.16C131.99 55.48 131.92 55.75 131.77 55.95C131.92 56.16 131.99 56.42 131.99 56.74C131.99 57.13 131.88 57.44 131.65 57.66C131.42 57.88 131.11 58 130.71 58L125.29 58L125.29 53.9ZM130.39 57.03C130.65 57.03 130.78 56.93 130.78 56.72C130.78 56.52 130.67 56.42 130.44 56.4L126.5 56.4L126.5 57.03L130.39 57.03ZM126.5 54.86L126.5 55.48L130.39 55.48C130.65 55.49 130.78 55.38 130.78 55.17C130.78 54.97 130.65 54.86 130.39 54.86L126.5 54.86Z" fill="#FFFFFF" fill-opacity="1.000000" fill-rule="nonzero"/>
</svg>
